<?xml version="1.0" encoding="UTF-8" standalone="no"?>
<!-- Created with Inkscape (http://www.inkscape.org/) -->

<svg
   width="800"
   height="800"
   viewBox="0 0 211.66667 211.66667"
   version="1.1"
   id="svg5"
   xmlns="http://www.w3.org/2000/svg"
   xmlns:svg="http://www.w3.org/2000/svg">
  <defs
     id="defs2">
    <rect
       x="-212.32962"
       y="224.19566"
       width="245.71677"
       height="289.94516"
       id="rect12561" />
    <marker
       style="overflow:visible"
       id="Arrow1Sstart"
       refX="0"
       refY="0"
       orient="auto">
      <path
         transform="matrix(0.2,0,0,0.2,1.2,0)"
         style="fill:context-stroke;fill-rule:evenodd;stroke:context-stroke;stroke-width:1pt"
         d="M 0,0 5,-5 -12.5,0 5,5 Z"
         id="path976" />
    </marker>
    <marker
       style="overflow:visible"
       id="Scissors"
       refX="0"
       refY="0"
       orient="auto">
      <path
         style="fill:context-stroke"
         d="M 9.0898857,-3.6061018 C 8.1198849,-4.7769976 6.3697607,-4.7358294 5.0623558,-4.2327734 l -8.2124046,3.0779029 c -2.3882933,-1.3067135 -4.7482873,-0.9325372 -4.7482873,-1.5687873 0,-0.4973164 0.4566662,-0.3883222 0.3883068,-1.6831941 -0.065635,-1.2432767 -1.3635771,-2.1630796 -2.5903987,-2.0816435 -1.227271,-0.00735 -2.499439,0.9331613 -2.510341,2.2300611 -0.09143,1.3063864 1.007209,2.5196896 2.306764,2.6052316 1.5223406,0.2266616 4.218258,-0.6955566 5.482945,1.57086006 -0.9422847,1.73825774 -2.6140244,1.74307674 -4.1255107,1.65607034 -1.2548743,-0.072235 -2.7620933,0.2873979 -3.3606483,1.5208605 -0.578367,1.1820862 -0.0112,2.8646022 1.316749,3.226412 1.3401912,0.4918277 3.1806689,-0.129711 3.4993722,-1.6707242 0.2456585,-1.187823 -0.5953659,-1.7459574 -0.2725074,-2.1771537 0.2436135,-0.32536 1.7907806,-0.1368452 4.5471053,-1.3748244 L 5.6763468,4.2330688 C 6.8000164,4.5467672 8.1730685,4.5362646 9.1684433,3.4313614 l -9.22008423,-3.48508362 z m -18.3078016,-1.900504 c 1.294559,0.7227998 1.1888392,2.6835702 -0.1564272,3.0632889 -1.2165179,0.423661 -2.7710269,-0.7589694 -2.3831779,-2.0774648 0.227148,-1.0818519 1.653387,-1.480632 2.5396051,-0.9858241 z m 0.056264,8.0173649 c 1.3508301,0.4988648 1.1214429,2.7844356 -0.2522207,3.091609 -0.9110597,0.3163391 -2.2135497,-0.1387976 -2.3056967,-1.2121394 -0.177609,-1.305055 1.356085,-2.4841482 2.5579174,-1.8794696 z"
         id="schere" />
    </marker>
    <marker
       style="overflow:visible"
       id="SquareL"
       refX="0"
       refY="0"
       orient="auto">
      <path
         transform="scale(0.8)"
         style="fill:context-stroke;fill-rule:evenodd;stroke:context-stroke;stroke-width:1pt"
         d="M -5,-5 V 5 H 5 V -5 Z"
         id="path1034" />
    </marker>
    <marker
       style="overflow:visible"
       id="DotL"
       refX="0"
       refY="0"
       orient="auto">
      <path
         transform="matrix(0.8,0,0,0.8,5.92,0.8)"
         style="fill:context-stroke;fill-rule:evenodd;stroke:context-stroke;stroke-width:1pt"
         d="m -2.5,-1 c 0,2.76 -2.24,5 -5,5 -2.76,0 -5,-2.24 -5,-5 0,-2.76 2.24,-5 5,-5 2.76,0 5,2.24 5,5 z"
         id="path1025" />
    </marker>
    <marker
       style="overflow:visible"
       id="marker1448"
       refX="0"
       refY="0"
       orient="auto">
      <g
         transform="scale(-1.2)"
         id="g1446">
        <path
           style="fill:none;fill-rule:evenodd;stroke:context-stroke;stroke-width:0.8;stroke-linecap:round"
           d="M -3.8048674,-3.9585227 0.54352094,0"
           id="path1434" />
        <path
           style="fill:none;fill-rule:evenodd;stroke:context-stroke;stroke-width:0.8;stroke-linecap:round"
           d="M -1.2866832,-3.9585227 3.0617053,0"
           id="path1436" />
        <path
           style="fill:none;fill-rule:evenodd;stroke:context-stroke;stroke-width:0.8;stroke-linecap:round"
           d="M 1.3053582,-3.9585227 5.6537466,0"
           id="path1438" />
        <path
           style="fill:none;fill-rule:evenodd;stroke:context-stroke;stroke-width:0.8;stroke-linecap:round"
           d="M -3.8048674,4.1775838 0.54352094,0.21974226"
           id="path1440" />
        <path
           style="fill:none;fill-rule:evenodd;stroke:context-stroke;stroke-width:0.8;stroke-linecap:round"
           d="M -1.2866832,4.1775838 3.0617053,0.21974226"
           id="path1442" />
        <path
           style="fill:none;fill-rule:evenodd;stroke:context-stroke;stroke-width:0.8;stroke-linecap:round"
           d="M 1.3053582,4.1775838 5.6537466,0.21974226"
           id="path1444" />
      </g>
    </marker>
    <marker
       style="overflow:visible"
       id="Arrow2Lstart"
       refX="0"
       refY="0"
       orient="auto">
      <path
         transform="matrix(1.1,0,0,1.1,1.1,0)"
         d="M 8.7185878,4.0337352 -2.2072895,0.01601326 8.7185884,-4.0017078 c -1.7454984,2.3720609 -1.7354408,5.6174519 -6e-7,8.035443 z"
         style="fill:context-stroke;fill-rule:evenodd;stroke-width:0.625;stroke-linejoin:round"
         id="path982" />
    </marker>
    <marker
       style="overflow:visible"
       id="Arrow1Mstart"
       refX="0"
       refY="0"
       orient="auto">
      <path
         transform="matrix(0.4,0,0,0.4,4,0)"
         style="fill:context-stroke;fill-rule:evenodd;stroke:context-stroke;stroke-width:1pt"
         d="M 0,0 5,-5 -12.5,0 5,5 Z"
         id="path970" />
    </marker>
    <marker
       style="overflow:visible"
       id="marker1410"
       refX="0"
       refY="0"
       orient="auto">
      <path
         transform="matrix(0.8,0,0,0.8,10,0)"
         style="fill:context-stroke;fill-rule:evenodd;stroke:context-stroke;stroke-width:1pt"
         d="M 0,0 5,-5 -12.5,0 5,5 Z"
         id="path1408" />
    </marker>
    <marker
       style="overflow:visible"
       id="Arrow1Lstart"
       refX="0"
       refY="0"
       orient="auto">
      <path
         transform="matrix(0.8,0,0,0.8,10,0)"
         style="fill:context-stroke;fill-rule:evenodd;stroke:context-stroke;stroke-width:1pt"
         d="M 0,0 5,-5 -12.5,0 5,5 Z"
         id="path964" />
    </marker>
    <marker
       style="overflow:visible"
       id="Tail"
       refX="0"
       refY="0"
       orient="auto">
      <g
         transform="scale(-1.2)"
         id="g1012">
        <path
           style="fill:none;fill-rule:evenodd;stroke:context-stroke;stroke-width:0.8;stroke-linecap:round"
           d="M -3.8048674,-3.9585227 0.54352094,0"
           id="path1000" />
        <path
           style="fill:none;fill-rule:evenodd;stroke:context-stroke;stroke-width:0.8;stroke-linecap:round"
           d="M -1.2866832,-3.9585227 3.0617053,0"
           id="path1002" />
        <path
           style="fill:none;fill-rule:evenodd;stroke:context-stroke;stroke-width:0.8;stroke-linecap:round"
           d="M 1.3053582,-3.9585227 5.6537466,0"
           id="path1004" />
        <path
           style="fill:none;fill-rule:evenodd;stroke:context-stroke;stroke-width:0.8;stroke-linecap:round"
           d="M -3.8048674,4.1775838 0.54352094,0.21974226"
           id="path1006" />
        <path
           style="fill:none;fill-rule:evenodd;stroke:context-stroke;stroke-width:0.8;stroke-linecap:round"
           d="M -1.2866832,4.1775838 3.0617053,0.21974226"
           id="path1008" />
        <path
           style="fill:none;fill-rule:evenodd;stroke:context-stroke;stroke-width:0.8;stroke-linecap:round"
           d="M 1.3053582,4.1775838 5.6537466,0.21974226"
           id="path1010" />
      </g>
    </marker>
  </defs>
  <g
     id="layer1">
    <path
       id="path31"
       style="color:#000000;fill:#bf0413;stroke-width:3.77951;stroke-linecap:round;stroke-miterlimit:2.6;-inkscape-stroke:none;paint-order:fill markers stroke"
       d="M 398.28516 1.7832031 C 330.65765 1.9399555 262.21364 19.165997 199.63281 55.228516 C 8.9102815 165.13333 -56.606469 409.23469 53.728516 599.31055 C 164.06348 789.3864 409.18342 854.68711 600.01758 744.97461 A 35.064064 34.935689 14.999877 0 0 600.35938 744.71094 A 35.064064 34.935689 14.999877 0 0 600.71875 744.56445 C 791.32944 634.46743 856.59849 390.3044 746.07031 200.33984 C 671.80923 72.707422 536.76052 1.462234 398.28516 1.7832031 z M 398.89258 71.34375 C 513.02219 70.925082 623.98191 129.70061 685.4375 235.32422 C 710.11146 277.73136 724.21727 323.27781 728.58984 368.97266 L 701.13086 368.97266 C 683.94142 368.97266 670.10156 382.8106 670.10156 400 C 670.10156 417.18944 683.94142 431.02734 701.13086 431.02734 L 728.59961 431.02734 C 718.86608 532.89817 661.46617 628.64252 565.48047 684.08398 A 35.064064 34.935689 14.999877 0 0 565.26367 684.37109 A 35.064064 34.935689 14.999877 0 0 564.9043 684.41602 C 406.78687 775.31934 205.70539 721.68802 114.39648 564.38867 C 89.825013 522.059 75.772929 476.61562 71.410156 431.02734 L 98.123047 431.02734 C 115.31249 431.02734 129.15039 417.18944 129.15039 400 C 129.15039 382.8106 115.31249 368.97266 98.123047 368.97266 L 71.398438 368.97266 C 81.142512 266.98843 138.66274 171.15453 234.80859 115.75 C 286.66053 85.87006 343.15486 71.548216 398.89258 71.34375 z "
       transform="scale(0.26458334)" />
    <g
       aria-label="$"
       transform="matrix(4.4049928,0,0,4.4049928,990.31222,-985.52699)"
       id="text12559"
       style="font-size:40px;white-space:pre;fill:#bf0413">
      <path
         style="color:#000000;-inkscape-font-specification:'Quicksand Medium, ';-inkscape-stroke:none"
         d="m -190.77008,253.67531 q 0,3 -2.16,5.08 -2.12,2.08 -5.44,2.68 v 3.24 q 0,0.84 -0.56,1.36 -0.52,0.56 -1.36,0.56 -0.8,0 -1.36,-0.56 -0.52,-0.52 -0.52,-1.36 v -3.16 q -2.32,-0.2 -4.2,-1 -1.88,-0.8 -3.6,-2.4 -0.84,-0.72 -0.84,-1.64 0,-0.72 0.56,-1.28 0.56,-0.6 1.32,-0.6 0.68,0 1.16,0.44 1.28,1.2 2.64,1.88 1.36,0.68 2.96,0.92 v -9.24 q -3.84,-0.88 -5.88,-2.76 -2.04,-1.92 -2.04,-5.2 0,-3.16 2.16,-5.2 2.2,-2.08 5.76,-2.52 v -2.08 q 0,-0.84 0.56,-1.36 0.56,-0.56 1.4,-0.56 0.8,0 1.32,0.56 0.52,0.52 0.52,1.36 v 2.12 q 1.88,0.28 3.48,1 1.6,0.72 2.68,1.76 0.92,0.8 0.92,1.72 0,0.72 -0.56,1.28 -0.52,0.56 -1.28,0.56 -0.56,0 -0.92,-0.32 -0.72,-0.72 -1.88,-1.32 -1.16,-0.6 -2.44,-0.88 v 8.88 q 3.84,1 5.72,2.8 1.88,1.76 1.88,5.24 z m -15.52,-13.2 q 0,1.6 1.04,2.6 1.08,0.96 3.08,1.6 v -8.08 q -1.92,0.32 -3.04,1.36 -1.08,1.04 -1.08,2.52 z m 7.92,17.16 q 1.68,-0.44 2.72,-1.44 1.04,-1 1.04,-2.36 -0.04,-1.52 -1,-2.52 -0.92,-1.04 -2.76,-1.72 z"
         id="path53" />
    </g>
  </g>
</svg>
